<svg xmlns="http://www.w3.org/2000/svg" version="1.1" xmlns:xlink="http://www.w3.org/1999/xlink" xmlns:svgjs="http://svgjs.dev/svgjs" viewBox="0 0 800 800" opacity="0.1" width="800" height="800"><g stroke-width="0.5" stroke="#6366f1" fill="none"><rect width="5" height="5" x="-2.5" y="-2.5" fill="#6366f1" stroke="none" transform="rotate(45, 0, 0)"></rect><rect width="5" height="5" x="64.16666666666667" y="-2.5" fill="#6366f1" stroke="none" transform="rotate(45, 66.66666666666667, 0)"></rect><rect width="5" height="5" x="130.83333333333334" y="-2.5" fill="#6366f1" stroke="none" transform="rotate(45, 133.33333333333334, 0)"></rect><rect width="5" height="5" x="197.5" y="-2.5" fill="#6366f1" stroke="none" transform="rotate(45, 200, 0)"></rect><rect width="5" height="5" x="264.1666666666667" y="-2.5" fill="#6366f1" stroke="none" transform="rotate(45, 266.6666666666667, 0)"></rect><rect width="5" height="5" x="330.83333333333337" y="-2.5" fill="#6366f1" stroke="none" transform="rotate(45, 333.33333333333337, 0)"></rect><rect width="5" height="5" x="397.50000000000006" y="-2.5" fill="#6366f1" stroke="none" transform="rotate(45, 400.00000000000006, 0)"></rect><rect width="5" height="5" x="464.16666666666674" y="-2.5" fill="#6366f1" stroke="none" transform="rotate(45, 466.66666666666674, 0)"></rect><rect width="5" height="5" x="530.8333333333334" y="-2.5" fill="#6366f1" stroke="none" transform="rotate(45, 533.3333333333334, 0)"></rect><rect width="5" height="5" x="597.5" y="-2.5" fill="#6366f1" stroke="none" transform="rotate(45, 600, 0)"></rect><rect width="5" height="5" x="664.1666666666666" y="-2.5" fill="#6366f1" stroke="none" transform="rotate(45, 666.6666666666666, 0)"></rect><rect width="5" height="5" x="730.8333333333333" y="-2.5" fill="#6366f1" stroke="none" transform="rotate(45, 733.3333333333333, 0)"></rect><rect width="5" height="5" x="797.4999999999999" y="-2.5" fill="#6366f1" stroke="none" transform="rotate(45, 799.9999999999999, 0)"></rect><rect width="5" height="5" x="-2.5" y="64.16666666666667" fill="#6366f1" stroke="none" transform="rotate(45, 0, 66.66666666666667)"></rect><rect width="5" height="5" x="64.16666666666667" y="64.16666666666667" fill="#6366f1" stroke="none" transform="rotate(45, 66.66666666666667, 66.66666666666667)"></rect><rect width="5" height="5" x="130.83333333333334" y="64.16666666666667" fill="#6366f1" stroke="none" transform="rotate(45, 133.33333333333334, 66.66666666666667)"></rect><rect width="5" height="5" x="197.5" y="64.16666666666667" fill="#6366f1" stroke="none" transform="rotate(45, 200, 66.66666666666667)"></rect><rect width="5" height="5" x="264.1666666666667" y="64.16666666666667" fill="#6366f1" stroke="none" transform="rotate(45, 266.6666666666667, 66.66666666666667)"></rect><rect width="5" height="5" x="330.83333333333337" y="64.16666666666667" fill="#6366f1" stroke="none" transform="rotate(45, 333.33333333333337, 66.66666666666667)"></rect><rect width="5" height="5" x="397.50000000000006" y="64.16666666666667" fill="#6366f1" stroke="none" transform="rotate(45, 400.00000000000006, 66.66666666666667)"></rect><rect width="5" height="5" x="464.16666666666674" y="64.16666666666667" fill="#6366f1" stroke="none" transform="rotate(45, 466.66666666666674, 66.66666666666667)"></rect><rect width="5" height="5" x="530.8333333333334" y="64.16666666666667" fill="#6366f1" stroke="none" transform="rotate(45, 533.3333333333334, 66.66666666666667)"></rect><rect width="5" height="5" x="597.5" y="64.16666666666667" fill="#6366f1" stroke="none" transform="rotate(45, 600, 66.66666666666667)"></rect><rect width="5" height="5" x="664.1666666666666" y="64.16666666666667" fill="#6366f1" stroke="none" transform="rotate(45, 666.6666666666666, 66.66666666666667)"></rect><rect width="5" height="5" x="730.8333333333333" y="64.16666666666667" fill="#6366f1" stroke="none" transform="rotate(45, 733.3333333333333, 66.66666666666667)"></rect><rect width="5" height="5" x="797.4999999999999" y="64.16666666666667" fill="#6366f1" stroke="none" transform="rotate(45, 799.9999999999999, 66.66666666666667)"></rect><rect width="5" height="5" x="-2.5" y="130.83333333333334" fill="#6366f1" stroke="none" transform="rotate(45, 0, 133.33333333333334)"></rect><rect width="5" height="5" x="64.16666666666667" y="130.83333333333334" fill="#6366f1" stroke="none" transform="rotate(45, 66.66666666666667, 133.33333333333334)"></rect><rect width="5" height="5" x="130.83333333333334" y="130.83333333333334" fill="#6366f1" stroke="none" transform="rotate(45, 133.33333333333334, 133.33333333333334)"></rect><rect width="5" height="5" x="197.5" y="130.83333333333334" fill="#6366f1" stroke="none" transform="rotate(45, 200, 133.33333333333334)"></rect><rect width="5" height="5" x="264.1666666666667" y="130.83333333333334" fill="#6366f1" stroke="none" transform="rotate(45, 266.6666666666667, 133.33333333333334)"></rect><rect width="5" height="5" x="330.83333333333337" y="130.83333333333334" fill="#6366f1" stroke="none" transform="rotate(45, 333.33333333333337, 133.33333333333334)"></rect><rect width="5" height="5" x="397.50000000000006" y="130.83333333333334" fill="#6366f1" stroke="none" transform="rotate(45, 400.00000000000006, 133.33333333333334)"></rect><rect width="5" height="5" x="464.16666666666674" y="130.83333333333334" fill="#6366f1" stroke="none" transform="rotate(45, 466.66666666666674, 133.33333333333334)"></rect><rect width="5" height="5" x="530.8333333333334" y="130.83333333333334" fill="#6366f1" stroke="none" transform="rotate(45, 533.3333333333334, 133.33333333333334)"></rect><rect width="5" height="5" x="597.5" y="130.83333333333334" fill="#6366f1" stroke="none" transform="rotate(45, 600, 133.33333333333334)"></rect><rect width="5" height="5" x="664.1666666666666" y="130.83333333333334" fill="#6366f1" stroke="none" transform="rotate(45, 666.6666666666666, 133.33333333333334)"></rect><rect width="5" height="5" x="730.8333333333333" y="130.83333333333334" fill="#6366f1" stroke="none" transform="rotate(45, 733.3333333333333, 133.33333333333334)"></rect><rect width="5" height="5" x="797.4999999999999" y="130.83333333333334" fill="#6366f1" stroke="none" transform="rotate(45, 799.9999999999999, 133.33333333333334)"></rect><rect width="5" height="5" x="-2.5" y="197.5" fill="#6366f1" stroke="none" transform="rotate(45, 0, 200)"></rect><rect width="5" height="5" x="64.16666666666667" y="197.5" fill="#6366f1" stroke="none" transform="rotate(45, 66.66666666666667, 200)"></rect><rect width="5" height="5" x="130.83333333333334" y="197.5" fill="#6366f1" stroke="none" transform="rotate(45, 133.33333333333334, 200)"></rect><rect width="5" height="5" x="197.5" y="197.5" fill="#6366f1" stroke="none" transform="rotate(45, 200, 200)"></rect><rect width="5" height="5" x="264.1666666666667" y="197.5" fill="#6366f1" stroke="none" transform="rotate(45, 266.6666666666667, 200)"></rect><rect width="5" height="5" x="330.83333333333337" y="197.5" fill="#6366f1" stroke="none" transform="rotate(45, 333.33333333333337, 200)"></rect><rect width="5" height="5" x="397.50000000000006" y="197.5" fill="#6366f1" stroke="none" transform="rotate(45, 400.00000000000006, 200)"></rect><rect width="5" height="5" x="464.16666666666674" y="197.5" fill="#6366f1" stroke="none" transform="rotate(45, 466.66666666666674, 200)"></rect><rect width="5" height="5" x="530.8333333333334" y="197.5" fill="#6366f1" stroke="none" transform="rotate(45, 533.3333333333334, 200)"></rect><rect width="5" height="5" x="597.5" y="197.5" fill="#6366f1" stroke="none" transform="rotate(45, 600, 200)"></rect><rect width="5" height="5" x="664.1666666666666" y="197.5" fill="#6366f1" stroke="none" transform="rotate(45, 666.6666666666666, 200)"></rect><rect width="5" height="5" x="730.8333333333333" y="197.5" fill="#6366f1" stroke="none" transform="rotate(45, 733.3333333333333, 200)"></rect><rect width="5" height="5" x="797.4999999999999" y="197.5" fill="#6366f1" stroke="none" transform="rotate(45, 799.9999999999999, 200)"></rect><rect width="5" height="5" x="-2.5" y="264.1666666666667" fill="#6366f1" stroke="none" transform="rotate(45, 0, 266.6666666666667)"></rect><rect width="5" height="5" x="64.16666666666667" y="264.1666666666667" fill="#6366f1" stroke="none" transform="rotate(45, 66.66666666666667, 266.6666666666667)"></rect><rect width="5" height="5" x="130.83333333333334" y="264.1666666666667" fill="#6366f1" stroke="none" transform="rotate(45, 133.33333333333334, 266.6666666666667)"></rect><rect width="5" height="5" x="197.5" y="264.1666666666667" fill="#6366f1" stroke="none" transform="rotate(45, 200, 266.6666666666667)"></rect><rect width="5" height="5" x="264.1666666666667" y="264.1666666666667" fill="#6366f1" stroke="none" transform="rotate(45, 266.6666666666667, 266.6666666666667)"></rect><rect width="5" height="5" x="330.83333333333337" y="264.1666666666667" fill="#6366f1" stroke="none" transform="rotate(45, 333.33333333333337, 266.6666666666667)"></rect><rect width="5" height="5" x="397.50000000000006" y="264.1666666666667" fill="#6366f1" stroke="none" transform="rotate(45, 400.00000000000006, 266.6666666666667)"></rect><rect width="5" height="5" x="464.16666666666674" y="264.1666666666667" fill="#6366f1" stroke="none" transform="rotate(45, 466.66666666666674, 266.6666666666667)"></rect><rect width="5" height="5" x="530.8333333333334" y="264.1666666666667" fill="#6366f1" stroke="none" transform="rotate(45, 533.3333333333334, 266.6666666666667)"></rect><rect width="5" height="5" x="597.5" y="264.1666666666667" fill="#6366f1" stroke="none" transform="rotate(45, 600, 266.6666666666667)"></rect><rect width="5" height="5" x="664.1666666666666" y="264.1666666666667" fill="#6366f1" stroke="none" transform="rotate(45, 666.6666666666666, 266.6666666666667)"></rect><rect width="5" height="5" x="730.8333333333333" y="264.1666666666667" fill="#6366f1" stroke="none" transform="rotate(45, 733.3333333333333, 266.6666666666667)"></rect><rect width="5" height="5" x="797.4999999999999" y="264.1666666666667" fill="#6366f1" stroke="none" transform="rotate(45, 799.9999999999999, 266.6666666666667)"></rect><rect width="5" height="5" x="-2.5" y="330.83333333333337" fill="#6366f1" stroke="none" transform="rotate(45, 0, 333.33333333333337)"></rect><rect width="5" height="5" x="64.16666666666667" y="330.83333333333337" fill="#6366f1" stroke="none" transform="rotate(45, 66.66666666666667, 333.33333333333337)"></rect><rect width="5" height="5" x="130.83333333333334" y="330.83333333333337" fill="#6366f1" stroke="none" transform="rotate(45, 133.33333333333334, 333.33333333333337)"></rect><rect width="5" height="5" x="197.5" y="330.83333333333337" fill="#6366f1" stroke="none" transform="rotate(45, 200, 333.33333333333337)"></rect><rect width="5" height="5" x="264.1666666666667" y="330.83333333333337" fill="#6366f1" stroke="none" transform="rotate(45, 266.6666666666667, 333.33333333333337)"></rect><rect width="5" height="5" x="330.83333333333337" y="330.83333333333337" fill="#6366f1" stroke="none" transform="rotate(45, 333.33333333333337, 333.33333333333337)"></rect><rect width="5" height="5" x="397.50000000000006" y="330.83333333333337" fill="#6366f1" stroke="none" transform="rotate(45, 400.00000000000006, 333.33333333333337)"></rect><rect width="5" height="5" x="464.16666666666674" y="330.83333333333337" fill="#6366f1" stroke="none" transform="rotate(45, 466.66666666666674, 333.33333333333337)"></rect><rect width="5" height="5" x="530.8333333333334" y="330.83333333333337" fill="#6366f1" stroke="none" transform="rotate(45, 533.3333333333334, 333.33333333333337)"></rect><rect width="5" height="5" x="597.5" y="330.83333333333337" fill="#6366f1" stroke="none" transform="rotate(45, 600, 333.33333333333337)"></rect><rect width="5" height="5" x="664.1666666666666" y="330.83333333333337" fill="#6366f1" stroke="none" transform="rotate(45, 666.6666666666666, 333.33333333333337)"></rect><rect width="5" height="5" x="730.8333333333333" y="330.83333333333337" fill="#6366f1" stroke="none" transform="rotate(45, 733.3333333333333, 333.33333333333337)"></rect><rect width="5" height="5" x="797.4999999999999" y="330.83333333333337" fill="#6366f1" stroke="none" transform="rotate(45, 799.9999999999999, 333.33333333333337)"></rect><rect width="5" height="5" x="-2.5" y="397.50000000000006" fill="#6366f1" stroke="none" transform="rotate(45, 0, 400.00000000000006)"></rect><rect width="5" height="5" x="64.16666666666667" y="397.50000000000006" fill="#6366f1" stroke="none" transform="rotate(45, 66.66666666666667, 400.00000000000006)"></rect><rect width="5" height="5" x="130.83333333333334" y="397.50000000000006" fill="#6366f1" stroke="none" transform="rotate(45, 133.33333333333334, 400.00000000000006)"></rect><rect width="5" height="5" x="197.5" y="397.50000000000006" fill="#6366f1" stroke="none" transform="rotate(45, 200, 400.00000000000006)"></rect><rect width="5" height="5" x="264.1666666666667" y="397.50000000000006" fill="#6366f1" stroke="none" transform="rotate(45, 266.6666666666667, 400.00000000000006)"></rect><rect width="5" height="5" x="330.83333333333337" y="397.50000000000006" fill="#6366f1" stroke="none" transform="rotate(45, 333.33333333333337, 400.00000000000006)"></rect><rect width="5" height="5" x="397.50000000000006" y="397.50000000000006" fill="#6366f1" stroke="none" transform="rotate(45, 400.00000000000006, 400.00000000000006)"></rect><rect width="5" height="5" x="464.16666666666674" y="397.50000000000006" fill="#6366f1" stroke="none" transform="rotate(45, 466.66666666666674, 400.00000000000006)"></rect><rect width="5" height="5" x="530.8333333333334" y="397.50000000000006" fill="#6366f1" stroke="none" transform="rotate(45, 533.3333333333334, 400.00000000000006)"></rect><rect width="5" height="5" x="597.5" y="397.50000000000006" fill="#6366f1" stroke="none" transform="rotate(45, 600, 400.00000000000006)"></rect><rect width="5" height="5" x="664.1666666666666" y="397.50000000000006" fill="#6366f1" stroke="none" transform="rotate(45, 666.6666666666666, 400.00000000000006)"></rect><rect width="5" height="5" x="730.8333333333333" y="397.50000000000006" fill="#6366f1" stroke="none" transform="rotate(45, 733.3333333333333, 400.00000000000006)"></rect><rect width="5" height="5" x="797.4999999999999" y="397.50000000000006" fill="#6366f1" stroke="none" transform="rotate(45, 799.9999999999999, 400.00000000000006)"></rect><rect width="5" height="5" x="-2.5" y="464.16666666666674" fill="#6366f1" stroke="none" transform="rotate(45, 0, 466.66666666666674)"></rect><rect width="5" height="5" x="64.16666666666667" y="464.16666666666674" fill="#6366f1" stroke="none" transform="rotate(45, 66.66666666666667, 466.66666666666674)"></rect><rect width="5" height="5" x="130.83333333333334" y="464.16666666666674" fill="#6366f1" stroke="none" transform="rotate(45, 133.33333333333334, 466.66666666666674)"></rect><rect width="5" height="5" x="197.5" y="464.16666666666674" fill="#6366f1" stroke="none" transform="rotate(45, 200, 466.66666666666674)"></rect><rect width="5" height="5" x="264.1666666666667" y="464.16666666666674" fill="#6366f1" stroke="none" transform="rotate(45, 266.6666666666667, 466.66666666666674)"></rect><rect width="5" height="5" x="330.83333333333337" y="464.16666666666674" fill="#6366f1" stroke="none" transform="rotate(45, 333.33333333333337, 466.66666666666674)"></rect><rect width="5" height="5" x="397.50000000000006" y="464.16666666666674" fill="#6366f1" stroke="none" transform="rotate(45, 400.00000000000006, 466.66666666666674)"></rect><rect width="5" height="5" x="464.16666666666674" y="464.16666666666674" fill="#6366f1" stroke="none" transform="rotate(45, 466.66666666666674, 466.66666666666674)"></rect><rect width="5" height="5" x="530.8333333333334" y="464.16666666666674" fill="#6366f1" stroke="none" transform="rotate(45, 533.3333333333334, 466.66666666666674)"></rect><rect width="5" height="5" x="597.5" y="464.16666666666674" fill="#6366f1" stroke="none" transform="rotate(45, 600, 466.66666666666674)"></rect><rect width="5" height="5" x="664.1666666666666" y="464.16666666666674" fill="#6366f1" stroke="none" transform="rotate(45, 666.6666666666666, 466.66666666666674)"></rect><rect width="5" height="5" x="730.8333333333333" y="464.16666666666674" fill="#6366f1" stroke="none" transform="rotate(45, 733.3333333333333, 466.66666666666674)"></rect><rect width="5" height="5" x="797.4999999999999" y="464.16666666666674" fill="#6366f1" stroke="none" transform="rotate(45, 799.9999999999999, 466.66666666666674)"></rect><rect width="5" height="5" x="-2.5" y="530.8333333333334" fill="#6366f1" stroke="none" transform="rotate(45, 0, 533.3333333333334)"></rect><rect width="5" height="5" x="64.16666666666667" y="530.8333333333334" fill="#6366f1" stroke="none" transform="rotate(45, 66.66666666666667, 533.3333333333334)"></rect><rect width="5" height="5" x="130.83333333333334" y="530.8333333333334" fill="#6366f1" stroke="none" transform="rotate(45, 133.33333333333334, 533.3333333333334)"></rect><rect width="5" height="5" x="197.5" y="530.8333333333334" fill="#6366f1" stroke="none" transform="rotate(45, 200, 533.3333333333334)"></rect><rect width="5" height="5" x="264.1666666666667" y="530.8333333333334" fill="#6366f1" stroke="none" transform="rotate(45, 266.6666666666667, 533.3333333333334)"></rect><rect width="5" height="5" x="330.83333333333337" y="530.8333333333334" fill="#6366f1" stroke="none" transform="rotate(45, 333.33333333333337, 533.3333333333334)"></rect><rect width="5" height="5" x="397.50000000000006" y="530.8333333333334" fill="#6366f1" stroke="none" transform="rotate(45, 400.00000000000006, 533.3333333333334)"></rect><rect width="5" height="5" x="464.16666666666674" y="530.8333333333334" fill="#6366f1" stroke="none" transform="rotate(45, 466.66666666666674, 533.3333333333334)"></rect><rect width="5" height="5" x="530.8333333333334" y="530.8333333333334" fill="#6366f1" stroke="none" transform="rotate(45, 533.3333333333334, 533.3333333333334)"></rect><rect width="5" height="5" x="597.5" y="530.8333333333334" fill="#6366f1" stroke="none" transform="rotate(45, 600, 533.3333333333334)"></rect><rect width="5" height="5" x="664.1666666666666" y="530.8333333333334" fill="#6366f1" stroke="none" transform="rotate(45, 666.6666666666666, 533.3333333333334)"></rect><rect width="5" height="5" x="730.8333333333333" y="530.8333333333334" fill="#6366f1" stroke="none" transform="rotate(45, 733.3333333333333, 533.3333333333334)"></rect><rect width="5" height="5" x="797.4999999999999" y="530.8333333333334" fill="#6366f1" stroke="none" transform="rotate(45, 799.9999999999999, 533.3333333333334)"></rect><rect width="5" height="5" x="-2.5" y="597.5" fill="#6366f1" stroke="none" transform="rotate(45, 0, 600)"></rect><rect width="5" height="5" x="64.16666666666667" y="597.5" fill="#6366f1" stroke="none" transform="rotate(45, 66.66666666666667, 600)"></rect><rect width="5" height="5" x="130.83333333333334" y="597.5" fill="#6366f1" stroke="none" transform="rotate(45, 133.33333333333334, 600)"></rect><rect width="5" height="5" x="197.5" y="597.5" fill="#6366f1" stroke="none" transform="rotate(45, 200, 600)"></rect><rect width="5" height="5" x="264.1666666666667" y="597.5" fill="#6366f1" stroke="none" transform="rotate(45, 266.6666666666667, 600)"></rect><rect width="5" height="5" x="330.83333333333337" y="597.5" fill="#6366f1" stroke="none" transform="rotate(45, 333.33333333333337, 600)"></rect><rect width="5" height="5" x="397.50000000000006" y="597.5" fill="#6366f1" stroke="none" transform="rotate(45, 400.00000000000006, 600)"></rect><rect width="5" height="5" x="464.16666666666674" y="597.5" fill="#6366f1" stroke="none" transform="rotate(45, 466.66666666666674, 600)"></rect><rect width="5" height="5" x="530.8333333333334" y="597.5" fill="#6366f1" stroke="none" transform="rotate(45, 533.3333333333334, 600)"></rect><rect width="5" height="5" x="597.5" y="597.5" fill="#6366f1" stroke="none" transform="rotate(45, 600, 600)"></rect><rect width="5" height="5" x="664.1666666666666" y="597.5" fill="#6366f1" stroke="none" transform="rotate(45, 666.6666666666666, 600)"></rect><rect width="5" height="5" x="730.8333333333333" y="597.5" fill="#6366f1" stroke="none" transform="rotate(45, 733.3333333333333, 600)"></rect><rect width="5" height="5" x="797.4999999999999" y="597.5" fill="#6366f1" stroke="none" transform="rotate(45, 799.9999999999999, 600)"></rect><rect width="5" height="5" x="-2.5" y="664.1666666666666" fill="#6366f1" stroke="none" transform="rotate(45, 0, 666.6666666666666)"></rect><rect width="5" height="5" x="64.16666666666667" y="664.1666666666666" fill="#6366f1" stroke="none" transform="rotate(45, 66.66666666666667, 666.6666666666666)"></rect><rect width="5" height="5" x="130.83333333333334" y="664.1666666666666" fill="#6366f1" stroke="none" transform="rotate(45, 133.33333333333334, 666.6666666666666)"></rect><rect width="5" height="5" x="197.5" y="664.1666666666666" fill="#6366f1" stroke="none" transform="rotate(45, 200, 666.6666666666666)"></rect><rect width="5" height="5" x="264.1666666666667" y="664.1666666666666" fill="#6366f1" stroke="none" transform="rotate(45, 266.6666666666667, 666.6666666666666)"></rect><rect width="5" height="5" x="330.83333333333337" y="664.1666666666666" fill="#6366f1" stroke="none" transform="rotate(45, 333.33333333333337, 666.6666666666666)"></rect><rect width="5" height="5" x="397.50000000000006" y="664.1666666666666" fill="#6366f1" stroke="none" transform="rotate(45, 400.00000000000006, 666.6666666666666)"></rect><rect width="5" height="5" x="464.16666666666674" y="664.1666666666666" fill="#6366f1" stroke="none" transform="rotate(45, 466.66666666666674, 666.6666666666666)"></rect><rect width="5" height="5" x="530.8333333333334" y="664.1666666666666" fill="#6366f1" stroke="none" transform="rotate(45, 533.3333333333334, 666.6666666666666)"></rect><rect width="5" height="5" x="597.5" y="664.1666666666666" fill="#6366f1" stroke="none" transform="rotate(45, 600, 666.6666666666666)"></rect><rect width="5" height="5" x="664.1666666666666" y="664.1666666666666" fill="#6366f1" stroke="none" transform="rotate(45, 666.6666666666666, 666.6666666666666)"></rect><rect width="5" height="5" x="730.8333333333333" y="664.1666666666666" fill="#6366f1" stroke="none" transform="rotate(45, 733.3333333333333, 666.6666666666666)"></rect><rect width="5" height="5" x="797.4999999999999" y="664.1666666666666" fill="#6366f1" stroke="none" transform="rotate(45, 799.9999999999999, 666.6666666666666)"></rect><rect width="5" height="5" x="-2.5" y="730.8333333333333" fill="#6366f1" stroke="none" transform="rotate(45, 0, 733.3333333333333)"></rect><rect width="5" height="5" x="64.16666666666667" y="730.8333333333333" fill="#6366f1" stroke="none" transform="rotate(45, 66.66666666666667, 733.3333333333333)"></rect><rect width="5" height="5" x="130.83333333333334" y="730.8333333333333" fill="#6366f1" stroke="none" transform="rotate(45, 133.33333333333334, 733.3333333333333)"></rect><rect width="5" height="5" x="197.5" y="730.8333333333333" fill="#6366f1" stroke="none" transform="rotate(45, 200, 733.3333333333333)"></rect><rect width="5" height="5" x="264.1666666666667" y="730.8333333333333" fill="#6366f1" stroke="none" transform="rotate(45, 266.6666666666667, 733.3333333333333)"></rect><rect width="5" height="5" x="330.83333333333337" y="730.8333333333333" fill="#6366f1" stroke="none" transform="rotate(45, 333.33333333333337, 733.3333333333333)"></rect><rect width="5" height="5" x="397.50000000000006" y="730.8333333333333" fill="#6366f1" stroke="none" transform="rotate(45, 400.00000000000006, 733.3333333333333)"></rect><rect width="5" height="5" x="464.16666666666674" y="730.8333333333333" fill="#6366f1" stroke="none" transform="rotate(45, 466.66666666666674, 733.3333333333333)"></rect><rect width="5" height="5" x="530.8333333333334" y="730.8333333333333" fill="#6366f1" stroke="none" transform="rotate(45, 533.3333333333334, 733.3333333333333)"></rect><rect width="5" height="5" x="597.5" y="730.8333333333333" fill="#6366f1" stroke="none" transform="rotate(45, 600, 733.3333333333333)"></rect><rect width="5" height="5" x="664.1666666666666" y="730.8333333333333" fill="#6366f1" stroke="none" transform="rotate(45, 666.6666666666666, 733.3333333333333)"></rect><rect width="5" height="5" x="730.8333333333333" y="730.8333333333333" fill="#6366f1" stroke="none" transform="rotate(45, 733.3333333333333, 733.3333333333333)"></rect><rect width="5" height="5" x="797.4999999999999" y="730.8333333333333" fill="#6366f1" stroke="none" transform="rotate(45, 799.9999999999999, 733.3333333333333)"></rect><rect width="5" height="5" x="-2.5" y="797.4999999999999" fill="#6366f1" stroke="none" transform="rotate(45, 0, 799.9999999999999)"></rect><rect width="5" height="5" x="64.16666666666667" y="797.4999999999999" fill="#6366f1" stroke="none" transform="rotate(45, 66.66666666666667, 799.9999999999999)"></rect><rect width="5" height="5" x="130.83333333333334" y="797.4999999999999" fill="#6366f1" stroke="none" transform="rotate(45, 133.33333333333334, 799.9999999999999)"></rect><rect width="5" height="5" x="197.5" y="797.4999999999999" fill="#6366f1" stroke="none" transform="rotate(45, 200, 799.9999999999999)"></rect><rect width="5" height="5" x="264.1666666666667" y="797.4999999999999" fill="#6366f1" stroke="none" transform="rotate(45, 266.6666666666667, 799.9999999999999)"></rect><rect width="5" height="5" x="330.83333333333337" y="797.4999999999999" fill="#6366f1" stroke="none" transform="rotate(45, 333.33333333333337, 799.9999999999999)"></rect><rect width="5" height="5" x="397.50000000000006" y="797.4999999999999" fill="#6366f1" stroke="none" transform="rotate(45, 400.00000000000006, 799.9999999999999)"></rect><rect width="5" height="5" x="464.16666666666674" y="797.4999999999999" fill="#6366f1" stroke="none" transform="rotate(45, 466.66666666666674, 799.9999999999999)"></rect><rect width="5" height="5" x="530.8333333333334" y="797.4999999999999" fill="#6366f1" stroke="none" transform="rotate(45, 533.3333333333334, 799.9999999999999)"></rect><rect width="5" height="5" x="597.5" y="797.4999999999999" fill="#6366f1" stroke="none" transform="rotate(45, 600, 799.9999999999999)"></rect><rect width="5" height="5" x="664.1666666666666" y="797.4999999999999" fill="#6366f1" stroke="none" transform="rotate(45, 666.6666666666666, 799.9999999999999)"></rect><rect width="5" height="5" x="730.8333333333333" y="797.4999999999999" fill="#6366f1" stroke="none" transform="rotate(45, 733.3333333333333, 799.9999999999999)"></rect><rect width="5" height="5" x="797.4999999999999" y="797.4999999999999" fill="#6366f1" stroke="none" transform="rotate(45, 799.9999999999999, 799.9999999999999)"></rect></g></svg>